<?xml version="1.0" standalone="no"?>
<!DOCTYPE svg PUBLIC "-//W3C//DTD SVG 20010904//EN"
 "http://www.w3.org/TR/2001/REC-SVG-20010904/DTD/svg10.dtd">
<svg version="1.0" xmlns="http://www.w3.org/2000/svg"
 width="800.000000pt" height="533.000000pt" viewBox="0 0 800.000000 533.000000"
 preserveAspectRatio="xMidYMid meet">
<metadata>
Created by potrace 1.16, written by Peter Selinger 2001-2019
</metadata>
<g transform="translate(0.000000,533.000000) scale(0.100000,-0.100000)"
fill="#000000" stroke="none">
<path d="M3554 5044 c-18 -14 -18 -15 4 -4 12 6 22 13 22 15 0 8 -5 6 -26 -11z"/>
<path d="M3431 4943 c-135 -137 -201 -289 -201 -465 0 -45 -4 -78 -10 -78 -21
0 -9 -18 16 -24 32 -8 45 1 23 17 -13 10 -14 26 -8 102 14 155 57 274 139 380
47 61 130 141 143 137 4 -1 6 2 2 8 -3 5 -9 10 -12 10 -3 0 -45 -39 -92 -87z"/>
<path d="M3915 5010 c-93 -9 -135 -19 -135 -31 0 -5 -3 -8 -7 -8 -17 3 -29 -2
-53 -21 -21 -17 -14 -16 45 7 67 26 78 27 250 28 188 0 207 -3 310 -50 162
-74 293 -262 325 -465 5 -36 10 -244 10 -463 0 -315 3 -398 13 -394 9 3 11 93
9 418 -4 434 -9 487 -52 602 -24 63 -98 180 -133 210 -12 11 -36 31 -52 46
-42 37 -134 87 -196 105 -63 19 -228 27 -334 16z"/>
<path d="M3764 4740 c-51 -36 -116 -119 -144 -185 -25 -57 -50 -134 -50 -154
0 -28 28 9 35 46 14 78 75 184 146 255 74 73 77 84 13 38z"/>
<path d="M3953 4659 c-58 -17 -44 -26 32 -21 40 2 90 1 110 -2 55 -11 125 -81
163 -163 54 -120 62 -186 62 -538 0 -278 2 -315 16 -315 13 0 14 35 8 328 -7
369 -16 442 -69 549 -70 142 -187 201 -322 162z"/>
<path d="M2995 4375 c-27 -8 -54 -14 -58 -15 -5 0 -5 -4 -2 -10 3 -5 0 -7 -9
-4 -32 12 -159 -68 -246 -156 -152 -151 -200 -276 -207 -540 -7 -245 20 -374
108 -510 129 -200 317 -312 553 -329 l91 -6 6 -110 c7 -122 25 -189 75 -285
91 -175 252 -304 445 -357 52 -15 104 -18 269 -18 227 0 281 9 394 66 80 41
96 57 25 25 -108 -47 -165 -58 -352 -63 -243 -7 -349 10 -485 82 -207 109
-351 344 -352 573 0 98 -8 112 -68 112 -344 1 -624 244 -673 583 -5 41 -7 122
-3 189 6 101 9 115 20 100 12 -15 14 -13 15 18 1 32 2 33 8 10 l8 -25 4 25 c3
18 9 24 23 22 15 -3 18 1 13 17 -3 12 0 19 6 18 6 -1 13 12 17 28 17 70 129
243 150 230 5 -3 32 16 62 41 29 25 89 63 133 84 135 65 180 70 635 70 l400 0
0 -86 c0 -54 4 -83 10 -79 6 3 10 42 10 85 0 67 -3 81 -18 89 -11 6 -139 11
-293 13 -151 1 -329 5 -396 8 -66 3 -120 3 -118 0 2 -3 -25 -6 -58 -7 -46 -1
-54 1 -31 6 46 11 94 43 94 62 0 10 6 19 13 22 29 10 -6 18 -89 18 -57 1 -82
4 -69 9 32 14 -4 10 -60 -5z"/>
<path d="M4810 4300 c0 -69 5 -74 90 -84 122 -16 284 -105 369 -203 53 -61
106 -167 121 -239 7 -34 10 -117 8 -212 -3 -131 -8 -167 -26 -217 -29 -78 -75
-145 -153 -224 -62 -62 -62 -63 -19 -34 88 60 176 188 204 297 19 73 23 338 6
411 -22 98 -77 193 -159 275 -42 42 -92 84 -111 93 -19 10 -42 22 -50 27 -8 5
-42 22 -75 37 -55 25 -58 27 -31 31 16 2 32 -2 36 -8 8 -13 149 -5 163 10 5 4
-20 22 -55 39 -68 33 -189 61 -269 61 l-49 0 0 -60z"/>
<path d="M3140 4032 c-252 -84 -368 -277 -320 -532 29 -151 162 -278 343 -329
l62 -18 5 -94 c7 -116 22 -97 18 22 -3 83 -3 84 -33 93 -151 48 -251 109 -305
187 -52 76 -78 193 -45 205 8 4 15 12 15 20 0 8 5 14 10 14 13 0 50 37 50 50
0 12 20 49 38 68 6 7 12 18 12 23 0 5 7 9 15 9 8 0 14 6 13 13 -2 6 3 11 10 9
7 -1 28 9 45 23 47 35 130 70 214 89 58 13 132 16 393 16 l321 0 -3 -144 c-2
-115 0 -142 10 -134 19 16 17 262 -2 281 -12 11 -71 15 -303 19 -159 3 -325 1
-371 -4 -104 -12 -114 -9 -78 25 16 15 25 27 21 27 -4 0 4 9 18 20 14 11 30
20 36 20 20 0 11 18 -11 23 -67 17 -126 16 -178 -1z"/>
<path d="M2750 4025 c-8 -9 -8 -15 -2 -15 12 0 26 19 19 26 -2 2 -10 -2 -17
-11z"/>
<path d="M4830 3861 c0 -5 15 -15 33 -22 69 -28 130 -73 158 -118 26 -40 29
-54 29 -123 0 -84 -17 -134 -59 -172 -12 -11 -21 -24 -21 -29 0 -6 11 0 25 13
14 13 25 19 25 14 0 -5 12 11 27 35 20 34 27 62 31 116 7 119 -36 188 -166
262 -58 33 -82 40 -82 24z"/>
<path d="M3228 3605 c-3 -3 -3 -60 0 -128 5 -132 21 -183 24 -77 1 36 2 74 3
85 1 11 3 30 4 43 1 20 6 22 49 22 26 0 53 5 60 12 9 9 12 9 12 0 0 -8 27 -12
90 -12 l90 0 0 -356 c0 -397 5 -443 66 -571 46 -97 118 -174 202 -215 64 -32
71 -33 187 -33 124 0 170 10 215 45 25 19 24 19 -30 0 -77 -28 -243 -28 -319
0 -133 48 -232 165 -276 325 -22 82 -29 291 -20 578 7 227 8 237 27 237 11 0
18 5 16 13 -4 9 -49 12 -184 12 -132 0 -181 3 -187 13 -8 13 -20 16 -29 7z"/>
<path d="M3730 3566 c0 -14 17 -16 135 -16 l135 0 0 -357 c0 -197 0 -368 0
-379 0 -21 3 -21 139 -16 94 3 140 1 145 -6 10 -17 -52 -137 -94 -182 -49 -53
-29 -52 22 1 40 41 85 125 94 174 6 32 -6 34 -161 38 l-120 2 -1 33 c-1 17 -2
179 -3 360 -1 180 -5 333 -10 341 -6 9 -46 15 -145 18 -121 5 -136 4 -136 -11z"/>
<path d="M4322 3573 c-162 -2 -251 -7 -247 -13 8 -13 735 -14 735 -1 0 17 -31
21 -133 19 -56 -2 -216 -4 -355 -5z"/>
<path d="M5080 3275 c-7 -9 -19 -14 -27 -11 -8 3 -12 2 -9 -2 8 -14 -90 -62
-171 -84 -71 -19 -109 -22 -441 -26 -212 -2 -360 -8 -356 -13 8 -13 657 -11
730 2 76 13 135 35 204 75 48 28 103 74 88 74 -3 0 -11 -7 -18 -15z"/>
<path d="M5175 2888 c-64 -33 -154 -55 -253 -63 -51 -4 -95 -11 -98 -16 -9
-15 136 -10 205 6 63 15 186 69 197 87 8 12 -6 8 -51 -14z"/>
<path d="M4480 2810 c0 -6 33 -10 85 -10 61 0 87 -4 91 -13 8 -21 -22 -159
-50 -226 -14 -34 -45 -91 -70 -125 -46 -64 -139 -156 -159 -156 -6 0 -8 -3 -4
-6 8 -8 92 54 139 104 86 89 156 252 160 372 l3 65 -97 3 c-63 2 -98 -1 -98
-8z"/>
<path d="M660 1881 l0 -21 3326 0 c2656 0 3325 3 3321 13 -3 9 -676 12 -3315
14 -1822 1 -3317 5 -3322 8 -6 3 -10 -3 -10 -14z"/>
<path d="M1307 1754 c-37 -25 -67 -69 -67 -99 0 -19 9 -19 34 0 25 19 89 19
125 0 46 -23 82 -121 67 -181 -4 -15 -21 -40 -38 -56 -16 -15 -26 -28 -20 -28
14 0 82 56 76 63 -3 3 3 11 14 18 11 7 18 19 15 27 -3 8 -8 10 -12 4 -3 -5 -7
25 -9 67 -5 156 -95 246 -185 185z"/>
<path d="M1887 1766 c-11 -27 5 -279 19 -311 11 -26 13 -7 10 138 -3 155 -13
214 -29 173z"/>
<path d="M4472 1748 c-12 -14 -22 -38 -22 -52 0 -25 3 -26 53 -26 31 0 61 -6
75 -16 21 -14 22 -14 22 8 0 13 3 32 6 44 3 12 -1 27 -10 37 -12 11 -13 17 -3
20 6 2 -13 6 -44 8 -50 4 -57 1 -77 -23z"/>
<path d="M929 1762 c6 -2 -2 -17 -18 -32 -54 -55 -59 -115 -7 -75 33 25 110
19 145 -11 29 -24 31 -24 31 -6 0 11 3 33 6 50 5 25 1 36 -22 57 -24 22 -35
25 -87 23 -32 -1 -54 -4 -48 -6z"/>
<path d="M1594 1744 c-4 -14 -1 -52 6 -84 12 -55 9 -182 -6 -315 l-6 -51 33 1
c30 0 34 4 40 35 9 40 5 50 -21 50 -16 0 -17 5 -11 28 4 15 6 102 3 195 -4
131 -7 167 -18 167 -8 0 -17 -12 -20 -26z"/>
<path d="M2103 1744 c-25 -28 -26 -34 -17 -58 4 -11 19 -16 53 -16 26 0 56 -7
68 -15 21 -15 22 -14 29 32 6 41 4 49 -16 65 -33 27 -90 23 -117 -8z"/>
<path d="M2318 1738 c-3 -18 -1 -67 3 -108 5 -41 8 -115 8 -165 -1 -51 4 -101
11 -116 28 -62 135 -80 202 -34 l37 25 3 -23 c2 -16 10 -22 31 -23 32 -1 33 0
42 49 7 35 6 37 -18 37 -23 0 -25 4 -29 50 -1 28 2 52 7 55 6 3 5 7 -2 11 -10
4 -13 42 -13 140 0 112 -2 134 -15 134 -13 0 -14 -21 -9 -147 5 -135 4 -151
-14 -185 -23 -45 -20 -48 13 -12 20 22 23 23 18 5 -3 -11 -25 -30 -50 -42 -52
-25 -126 -21 -156 9 -24 24 -37 114 -37 255 0 93 -3 117 -14 117 -8 0 -16 -14
-18 -32z"/>
<path d="M2728 1738 c-2 -18 1 -51 5 -73 8 -37 5 -320 -4 -355 -3 -13 12 -15
98 -15 56 0 103 2 106 5 2 3 7 21 11 41 l7 37 -93 1 c-50 1 -92 2 -93 4 -1 1
0 21 3 44 3 30 8 40 18 36 19 -7 18 7 -3 22 -13 10 -17 36 -21 149 -3 103 -8
136 -18 136 -7 0 -14 -14 -16 -32z"/>
<path d="M2940 1733 c0 -21 -3 -47 -6 -59 -5 -19 -2 -20 62 -16 l67 5 -5 -187
-5 -186 34 0 c36 0 42 8 46 56 2 25 -2 29 -26 32 -24 3 -28 7 -23 25 3 12 6
38 7 57 0 29 2 31 9 15 l9 -20 0 20 c0 11 -6 29 -14 39 -11 15 -15 48 -15 128
l0 108 -62 0 c-45 0 -59 3 -48 10 12 8 11 10 -7 10 -20 0 -23 -5 -23 -37z"/>
<path d="M3257 1763 c-4 -4 -33 -8 -65 -9 -34 -1 -57 -7 -56 -13 1 -6 2 -27 3
-46 1 -34 2 -35 40 -35 49 0 78 24 87 73 6 36 4 44 -9 30z"/>
<path d="M3435 1762 c2 -2 -10 -22 -26 -45 -16 -22 -29 -48 -29 -59 0 -17 2
-18 30 -3 16 8 49 15 74 15 60 0 100 -39 117 -114 15 -67 7 -101 -33 -138 -16
-15 -27 -28 -23 -28 17 0 66 36 71 52 3 10 9 16 14 13 5 -3 14 3 20 14 6 12 6
22 1 25 -5 4 -12 37 -16 74 -13 144 -61 206 -153 200 -28 -2 -49 -5 -47 -6z"/>
<path d="M3738 1733 c-3 -21 0 -54 5 -73 5 -20 7 -106 4 -202 l-5 -167 36 2
c33 2 37 5 43 37 9 42 5 50 -25 50 -20 0 -23 5 -22 30 0 18 6 30 15 30 11 0
11 3 1 15 -9 10 -9 15 -1 15 6 0 11 5 11 11 0 5 -4 7 -10 4 -6 -3 -7 1 -4 9 3
9 1 16 -5 16 -7 0 -11 42 -11 130 0 104 -3 130 -14 130 -9 0 -16 -14 -18 -37z"/>
<path d="M3824 1743 c2 -16 5 -38 5 -50 1 -19 7 -23 30 -23 30 0 61 -22 61
-43 0 -8 3 -8 12 1 6 6 11 32 12 57 1 58 -26 85 -85 85 -38 0 -39 -1 -35 -27z"/>
<path d="M4079 1758 c0 -7 -2 -115 -2 -240 l-2 -228 90 0 c50 0 100 3 112 6
19 5 43 48 43 75 0 5 -50 9 -111 9 -97 0 -110 2 -105 16 3 9 7 30 7 47 1 24 3
26 6 10 7 -36 22 -27 20 11 -1 19 -6 34 -11 33 -17 -3 -27 76 -24 176 3 74 0
97 -9 97 -7 0 -13 -6 -14 -12z"/>
<path d="M4150 1762 c5 -2 10 -24 10 -48 l0 -44 46 0 c25 0 53 -4 63 -10 16
-8 20 -5 25 22 10 49 7 68 -9 68 -8 0 -15 3 -15 8 0 4 -29 7 -65 7 -36 0 -61
-1 -55 -3z"/>
<path d="M4848 1733 c-3 -21 -1 -56 3 -78 13 -63 10 -261 -5 -358 -7 -48 -9
-90 -5 -92 4 -3 17 6 28 21 37 47 40 92 5 63 -16 -13 -17 -11 -10 16 5 17 12
62 17 100 4 39 9 75 10 80 0 6 5 -1 9 -15 8 -24 8 -23 9 8 1 21 -3 31 -11 30
-10 -2 -14 30 -16 130 -2 103 -6 132 -16 132 -8 0 -16 -15 -18 -37z"/>
<path d="M5007 1736 c-3 -19 -1 -51 4 -72 4 -22 9 -97 9 -167 0 -141 10 -174
55 -195 59 -27 145 -10 183 36 10 13 12 11 12 -16 0 -29 3 -32 30 -32 33 0 39
9 43 56 2 23 -2 30 -20 32 -16 2 -23 10 -23 26 0 35 -8 36 -41 5 -37 -34 -88
-45 -138 -30 -43 13 -76 44 -66 62 5 6 10 25 11 41 3 22 0 29 -10 25 -15 -6
-24 71 -22 192 1 75 -17 100 -27 37z"/>
<path d="M5265 1656 c9 -134 0 -211 -26 -237 -10 -10 -15 -19 -9 -19 5 0 21
12 35 27 25 27 25 30 25 185 0 138 -2 158 -16 158 -14 0 -15 -13 -9 -114z"/>
<path d="M5425 1531 l0 -238 34 1 c30 1 36 5 43 31 11 40 4 55 -27 55 -22 0
-25 4 -23 31 3 36 18 50 19 17 0 -22 1 -22 8 -3 6 13 4 23 -5 28 -20 11 -17
28 3 20 12 -5 11 0 -6 24 -21 28 -23 39 -19 152 2 102 1 121 -12 121 -13 0
-15 -33 -15 -239z"/>
<path d="M5504 1754 c3 -9 6 -31 6 -50 0 -31 3 -34 29 -34 30 0 61 -22 61 -43
0 -8 3 -8 12 1 19 19 15 97 -6 121 -24 27 -112 31 -102 5z"/>
<path d="M5759 1763 c-1 -5 -2 -112 -3 -239 l-1 -230 32 -2 c36 -3 39 0 48 51
7 37 7 37 -25 37 -25 0 -31 3 -26 16 3 9 7 30 7 47 1 21 3 25 6 12 9 -37 23
-40 23 -5 0 18 -8 42 -17 53 -15 16 -18 39 -18 143 0 92 -3 124 -12 124 -7 0
-13 -3 -14 -7z"/>
<path d="M5915 1529 l0 -242 107 5 c131 7 180 30 219 102 23 45 22 69 -4 48
-8 -7 -18 -8 -22 -4 -5 4 -5 -1 -2 -10 4 -10 2 -18 -3 -18 -14 0 -24 21 -13
29 22 14 33 54 33 123 0 84 -25 148 -73 182 -36 27 -172 34 -163 9 3 -8 6 -30
6 -49 l0 -34 53 0 c34 0 63 -7 85 -20 34 -21 71 -87 72 -128 0 -32 -24 -76
-57 -103 -26 -20 -22 -21 23 -2 12 4 15 2 12 -8 -7 -20 -42 -27 -151 -28 l-97
-1 4 26 c3 14 13 32 22 39 12 9 14 14 5 19 -7 5 -9 16 -5 28 4 13 2 18 -4 14
-16 -9 -22 31 -22 152 0 83 -3 112 -12 112 -10 0 -13 -55 -13 -241z"/>
<path d="M6345 1530 l0 -240 33 0 c35 0 41 9 45 56 2 25 -2 29 -25 32 -30 4
-34 23 -18 87 7 29 8 29 10 5 2 -19 4 -20 7 -7 3 10 -2 29 -11 42 -12 19 -16
52 -16 145 0 90 -3 120 -13 120 -9 0 -12 -54 -12 -240z"/>
<path d="M6633 1748 c-33 -23 -63 -72 -63 -103 0 -15 4 -14 34 4 51 32 120 29
155 -7 l28 -28 2 57 c1 51 -1 59 -25 78 -35 28 -90 27 -131 -1z"/>
<path d="M6999 1742 c-31 -31 -49 -64 -49 -87 0 -14 3 -14 30 0 64 33 146 11
173 -47 38 -82 33 -140 -16 -188 -24 -23 -27 -29 -12 -24 11 4 34 22 52 40 18
19 37 34 42 34 6 0 11 8 11 18 -1 15 -2 15 -13 1 -10 -13 -12 -3 -14 56 -2
101 -18 153 -60 192 -46 44 -105 46 -144 5z"/>
<path d="M2021 1722 c-6 -12 -11 -52 -11 -89 0 -65 2 -71 33 -99 17 -17 48
-40 68 -52 19 -12 44 -31 54 -42 18 -20 18 -21 -1 -35 -18 -13 -18 -14 3 -8
12 3 28 18 35 34 9 19 18 27 28 24 8 -4 11 -3 8 1 -4 4 -3 15 3 25 6 13 6 19
-1 19 -5 0 -10 -6 -10 -12 0 -7 -12 2 -26 20 -14 18 -47 43 -72 56 -79 40
-118 97 -101 145 12 30 4 39 -10 13z"/>
<path d="M4393 1728 c-6 -7 -13 -44 -17 -81 -6 -60 -4 -72 15 -98 11 -16 45
-43 74 -60 70 -39 83 -55 67 -80 -7 -10 -8 -19 -4 -19 12 0 52 44 52 58 0 7 6
11 13 9 7 -1 13 10 14 28 2 29 2 29 -7 5 -8 -24 -11 -24 -14 2 -1 12 -76 67
-135 100 -43 24 -67 76 -53 117 12 33 10 38 -5 19z"/>
<path d="M1191 1704 c-29 -37 -42 -92 -44 -187 -1 -95 12 -143 51 -180 89 -85
260 -52 308 60 19 45 18 47 -16 26 -16 -9 -30 -21 -30 -26 0 -4 -4 -6 -9 -2
-5 3 -12 1 -16 -4 -10 -17 -90 -23 -136 -11 -51 14 -73 31 -94 73 -21 42 -10
46 16 6 11 -19 18 -25 14 -14 -4 11 -9 27 -12 35 -2 9 -14 20 -26 25 -34 15
-36 114 -4 178 28 54 27 58 -2 21z"/>
<path d="M1657 1673 c4 -53 13 -70 111 -217 59 -87 113 -161 120 -164 18 -7
29 7 36 49 5 31 3 37 -12 41 -11 3 -26 20 -35 37 -9 17 -11 29 -6 26 14 -9 11
8 -7 33 -8 12 -21 22 -28 22 -17 0 -69 64 -130 158 -26 39 -49 72 -51 72 -2 0
-1 -26 2 -57z"/>
<path d="M3331 1704 c-30 -38 -42 -94 -43 -198 -1 -97 9 -132 54 -173 87 -82
258 -45 305 66 19 44 11 49 -26 18 -43 -35 -95 -51 -153 -44 -74 9 -148 71
-118 101 8 8 10 7 5 -5 -3 -9 1 -22 10 -29 15 -12 15 -10 9 16 -8 31 -27 50
-33 33 -8 -25 -31 48 -31 100 0 41 7 67 25 99 27 48 26 54 -4 16z"/>
<path d="M6891 1690 c-30 -54 -49 -207 -32 -267 23 -84 88 -133 176 -133 82 0
142 35 177 103 23 46 17 59 -15 29 -55 -52 -172 -64 -238 -25 -22 13 -26 20
-18 35 7 13 6 18 -2 18 -6 0 -9 9 -6 20 6 24 -9 36 -27 21 -15 -13 -15 -12
-22 80 -5 55 -2 74 16 109 28 54 21 62 -9 10z m37 -256 c-4 -3 -12 5 -18 18
-12 22 -12 22 6 6 10 -10 15 -20 12 -24z"/>
<path d="M807 1680 c-21 -34 -41 -181 -32 -230 10 -56 49 -113 95 -139 59 -33
147 -27 189 13 26 25 48 72 38 82 -2 2 -21 -6 -43 -17 -65 -34 -155 -14 -206
46 -19 22 -23 41 -9 49 5 4 7 -3 4 -14 -3 -11 0 -20 6 -20 6 0 11 11 11 25 0
20 -5 25 -24 25 -13 0 -27 7 -30 16 -12 31 -6 125 10 155 20 40 13 47 -9 9z"/>
<path d="M6510 1678 c-39 -65 -40 -238 0 -302 77 -126 286 -109 296 24 1 22
-1 40 -6 40 -14 0 -21 -18 -9 -22 22 -7 -42 -39 -90 -45 -138 -16 -250 168
-182 300 23 45 18 49 -9 5z"/>
<path d="M5627 1604 c-24 -20 -26 -27 -17 -45 14 -26 36 -11 45 32 9 40 5 42
-28 13z"/>
<path d="M3941 1601 c-20 -16 -22 -21 -11 -41 10 -19 14 -20 25 -9 17 17 31
69 19 69 -5 0 -20 -9 -33 -19z"/>
<path d="M4220 1576 l-65 -11 3 -37 c3 -35 6 -38 33 -38 46 0 99 26 99 49 0
11 3 26 6 35 3 9 2 15 -2 15 -5 -1 -38 -7 -74 -13z"/>
<path d="M3824 1530 c3 -22 13 -48 21 -58 8 -9 39 -51 68 -92 40 -56 61 -77
85 -84 40 -11 53 -1 55 45 2 30 -1 34 -28 39 -19 3 -38 18 -57 45 -32 46 -37
68 -8 34 26 -32 26 -15 0 22 -12 15 -27 26 -34 23 -7 -3 -25 11 -40 31 -16 20
-36 35 -48 35 -18 0 -20 -4 -14 -40z"/>
<path d="M5508 1528 c3 -24 11 -48 17 -54 6 -7 38 -48 70 -93 48 -67 64 -82
92 -87 19 -4 36 -4 39 -2 2 3 5 22 7 44 2 36 0 39 -25 42 -16 2 -36 15 -48 32
-25 35 -26 47 -3 29 15 -12 15 -10 -2 16 -23 36 -45 60 -45 48 0 -5 3 -13 8
-19 4 -5 -13 12 -37 38 -24 27 -51 48 -61 48 -15 0 -17 -6 -12 -42z"/>
<path d="M5309 1498 c-8 -24 -7 -58 1 -58 5 0 10 14 10 30 0 17 -2 30 -5 30
-3 0 -5 -1 -6 -2z"/>
<path d="M6235 1474 c-9 -15 -12 -23 -6 -20 11 7 35 46 28 46 -3 0 -12 -12
-22 -26z"/>
<path d="M6530 1493 c1 -15 27 -43 33 -36 4 3 7 1 7 -5 0 -7 5 -12 11 -12 6 0
1 14 -11 30 -20 28 -40 40 -40 23z"/>
<path d="M2372 1460 c0 -14 2 -19 5 -12 2 6 2 18 0 25 -3 6 -5 1 -5 -13z"/>
<path d="M2621 1453 c0 -25 1 -26 9 -8 12 27 12 35 0 35 -5 0 -10 -12 -9 -27z"/>
<path d="M870 1450 c0 -5 5 -10 11 -10 5 0 7 5 4 10 -3 6 -8 10 -11 10 -2 0
-4 -4 -4 -10z"/>
<path d="M1075 1429 c-16 -10 -25 -19 -19 -19 7 0 22 9 35 20 30 24 23 24 -16
-1z"/>
<path d="M1998 1444 c-5 -4 -8 -35 -8 -70 0 -61 1 -62 31 -73 99 -34 199 7
215 89 l7 33 -29 -22 c-39 -28 -94 -36 -148 -21 -35 10 -45 18 -52 42 -5 16
-12 26 -16 22z"/>
<path d="M4360 1380 l0 -69 38 -10 c109 -31 196 8 209 95 5 34 4 37 -8 22 -17
-21 -80 -48 -111 -48 -54 0 -96 20 -107 50 -5 17 -12 30 -15 30 -4 0 -6 -31
-6 -70z"/>
<path d="M2390 1431 c0 -6 4 -13 10 -16 6 -3 7 1 4 9 -7 18 -14 21 -14 7z"/>
<path d="M6381 1424 c0 -11 3 -14 6 -6 3 7 2 16 -1 19 -3 4 -6 -2 -5 -13z"/>
<path d="M1896 1417 c3 -10 9 -15 12 -12 3 3 0 11 -7 18 -10 9 -11 8 -5 -6z"/>
<path d="M2935 1410 c-3 -5 -2 -10 4 -10 5 0 13 5 16 10 3 6 2 10 -4 10 -5 0
-13 -4 -16 -10z"/>
<path d="M4300 1410 c-13 -8 -12 -10 3 -10 9 0 17 5 17 10 0 12 -1 12 -20 0z"/>
<path d="M1405 1121 c-69 -17 -90 -46 -98 -136 -7 -69 11 -97 92 -150 78 -50
88 -60 71 -80 -7 -8 -9 -15 -4 -15 15 0 30 14 37 33 4 10 11 16 16 13 5 -3 15
2 22 12 12 15 12 16 -2 5 -14 -11 -18 -7 -31 26 -12 30 -32 50 -86 85 -44 29
-74 57 -82 76 -15 35 -7 62 15 54 10 -4 15 0 15 12 0 9 3 14 8 10 7 -7 8 -12
11 -39 1 -8 15 -11 46 -9 29 3 54 -1 69 -11 23 -15 24 -15 30 15 3 17 6 46 6
64 0 29 -3 34 -24 34 -13 0 -36 2 -52 4 -16 3 -42 1 -59 -3z"/>
<path d="M6670 1121 c-77 -16 -99 -48 -103 -147 -2 -73 3 -81 96 -141 37 -23
67 -47 67 -51 0 -4 -6 -20 -12 -35 -10 -21 -20 -27 -43 -26 -32 1 -96 21 -93
29 0 3 -3 16 -7 30 -8 24 -8 24 -16 5 -4 -11 -8 -44 -8 -73 -1 -48 1 -53 27
-63 45 -18 123 -15 158 5 41 25 68 70 59 103 -3 14 -2 30 2 37 4 7 0 3 -9 -7
-10 -11 -15 -24 -11 -31 3 -6 2 -7 -2 -3 -5 4 -8 25 -6 45 3 46 -24 84 -79
112 -54 27 -100 79 -100 112 0 26 20 52 20 26 1 -8 6 -6 15 6 8 11 16 17 16
13 1 -4 3 -11 4 -17 1 -5 3 -14 4 -20 0 -5 22 -10 49 -10 26 0 57 -7 69 -15
20 -14 21 -13 27 23 11 68 8 92 -13 92 -10 0 -31 2 -47 4 -16 3 -45 1 -64 -3z
m80 -381 c-8 -5 -19 -10 -25 -10 -5 0 -3 5 5 10 8 5 20 10 25 10 6 0 3 -5 -5
-10z"/>
<path d="M799 1113 c-1 -4 -2 -113 -3 -241 l-1 -233 34 3 c30 3 36 8 43 36 7
24 5 36 -6 48 -10 9 -14 26 -11 47 3 18 3 26 -1 20 -3 -7 -9 -13 -13 -13 -10
0 -11 7 -17 123 -6 107 -1 147 20 147 7 0 18 10 24 23 10 20 11 19 11 -14 l1
-37 53 -4 c28 -3 59 -8 67 -12 11 -4 16 -1 16 11 1 10 4 29 8 43 12 47 -4 55
-119 58 -58 2 -106 0 -106 -5z m46 -383 c3 -5 -1 -10 -9 -10 -9 0 -16 5 -16
10 0 6 4 10 9 10 6 0 13 -4 16 -10z"/>
<path d="M1119 1101 c0 -9 -1 -116 -2 -238 l-2 -223 38 0 c32 0 37 3 39 25 4
60 4 60 -19 57 -18 -3 -23 2 -23 20 0 13 5 30 10 38 8 11 9 7 4 -15 -4 -16 -3
-26 2 -22 15 14 16 57 1 57 -19 0 -30 97 -21 185 5 48 10 65 20 61 7 -3 17 8
23 26 16 45 15 47 -29 46 -30 0 -40 -5 -41 -17z"/>
<path d="M1759 1100 c-80 -42 -110 -107 -112 -245 -2 -71 1 -85 27 -129 35
-61 114 -102 174 -91 56 10 109 49 117 85 9 42 4 45 -36 21 -19 -12 -51 -21
-73 -21 -44 0 -128 38 -119 54 4 6 8 6 11 -2 2 -7 12 -12 22 -12 10 0 22 -4
25 -10 3 -5 11 -10 17 -10 6 0 -9 15 -33 34 -34 26 -45 30 -49 19 -4 -10 -12
-7 -30 14 -34 39 -41 151 -12 203 11 19 27 34 36 34 9 -1 13 2 10 7 -3 5 0 9
7 9 11 0 9 -34 -7 -73 -5 -15 0 -14 31 7 54 37 117 36 155 -2 l28 -28 6 44 c3
25 6 60 6 78 l0 34 -82 0 c-62 -1 -92 -6 -119 -20z"/>
<path d="M2217 1114 c-4 -4 -7 -18 -7 -30 0 -43 -89 -247 -145 -333 -13 -20
-25 -52 -27 -71 -3 -32 -1 -35 26 -38 35 -4 43 3 51 51 7 36 6 37 -21 38 -22
1 -24 3 -8 6 16 3 24 14 29 41 8 45 101 261 121 282 19 19 19 0 -1 -46 -8 -19
-10 -32 -5 -29 5 3 16 -9 24 -28 12 -30 47 -53 60 -40 2 3 -4 30 -15 61 -17
50 -18 58 -5 68 11 8 13 19 7 40 -6 24 -13 30 -42 32 -19 2 -38 0 -42 -4z"/>
<path d="M2518 1083 c-3 -21 0 -60 5 -88 8 -44 5 -297 -4 -335 -3 -12 13 -15
97 -18 99 -3 102 -2 107 20 3 13 9 33 13 46 6 21 4 23 -22 21 -16 -1 -60 -1
-99 0 -58 2 -66 4 -47 13 28 14 30 54 2 61 -19 5 -20 14 -20 125 0 107 9 156
23 120 3 -8 10 -1 16 15 19 48 15 57 -28 57 -37 0 -39 -1 -43 -37z m52 -313
c0 -5 -5 -10 -11 -10 -5 0 -7 5 -4 10 3 6 8 10 11 10 2 0 4 -4 4 -10z"/>
<path d="M3009 1098 c0 -13 -1 -121 -2 -240 l-2 -218 98 0 c137 0 194 27 238
112 23 45 23 49 2 41 -12 -5 -14 -3 -8 7 5 8 4 11 -3 6 -18 -11 -21 6 -10 63
9 50 2 113 -18 165 -6 16 -4 18 14 14 28 -8 28 3 0 30 -37 34 -73 42 -194 42
-111 0 -114 -1 -115 -22z m142 -80 c92 -7 147 -60 151 -147 2 -49 -23 -88 -70
-111 -28 -14 -30 -17 -14 -27 13 -9 -2 -11 -73 -11 -95 1 -126 8 -85 19 24 7
24 7 3 8 -13 1 -23 5 -23 11 0 5 7 7 15 4 10 -4 15 0 15 15 0 12 -6 21 -15 21
-12 0 -15 20 -15 118 0 106 2 118 20 130 11 7 21 20 22 30 1 9 3 1 5 -19 l4
-37 60 -4z m159 -237 c0 -12 -13 -26 -32 -35 -40 -21 -42 -20 -18 4 12 12 25
18 30 15 6 -4 10 3 10 14 0 12 2 21 5 21 3 0 5 -9 5 -19z"/>
<path d="M3478 1083 c-3 -21 0 -54 5 -73 5 -20 7 -108 4 -202 l-5 -168 113 0
c124 0 114 -5 129 63 6 25 4 28 -16 27 -13 -1 -62 -2 -109 -1 l-86 1 6 33 c3
19 6 25 9 15 2 -10 8 -18 13 -18 17 0 9 35 -11 53 -18 15 -20 29 -20 123 0 96
2 106 19 111 11 3 23 15 27 26 6 18 8 16 11 -15 4 -36 6 -38 41 -38 20 0 49
-6 64 -14 l27 -14 6 43 c13 80 14 80 -111 83 l-112 3 -4 -38z"/>
<path d="M4009 1101 c-1 -9 -1 -84 1 -167 1 -84 -2 -167 -8 -185 -6 -19 -13
-51 -17 -72 -6 -38 -6 -38 26 -35 28 3 34 8 41 36 10 38 -8 75 -23 50 -6 -9
-9 -10 -9 -1 0 7 6 18 14 25 10 10 11 21 3 48 -11 41 -1 250 13 264 7 7 10
-12 10 -52 0 -53 10 -87 62 -219 54 -139 62 -154 71 -133 11 30 15 100 5 93
-5 -2 -8 0 -8 5 0 6 6 12 14 15 8 3 22 30 31 59 25 77 106 245 112 231 2 -6
-3 -27 -11 -47 -8 -20 -10 -34 -5 -30 8 4 10 -47 8 -170 l-4 -176 41 0 c40 0
42 1 47 37 8 45 2 54 -28 49 -22 -4 -24 -1 -21 25 5 39 16 50 16 16 0 -15 5
-27 10 -27 6 0 10 6 10 14 0 24 -12 46 -25 46 -8 0 -15 23 -19 62 -7 72 3 190
15 182 11 -7 32 45 25 63 -5 11 -61 13 -70 2 -10 -14 -116 -277 -116 -287 0
-7 -6 -19 -13 -26 -22 -23 -46 17 -96 157 -36 103 -35 97 -17 97 12 0 13 6 5
30 -6 17 -14 30 -17 31 -4 0 -22 2 -39 3 -25 3 -33 0 -34 -13z"/>
<path d="M4539 1103 c0 -10 -1 -118 -2 -241 l-2 -223 115 3 114 3 8 39 c6 29
5 42 -4 47 -10 6 -8 12 7 23 23 18 13 21 -16 6 -10 -6 -19 -16 -19 -23 0 -9
-25 -11 -92 -9 -50 2 -87 7 -81 10 6 4 13 16 16 27 4 17 5 16 6 -5 1 -18 4
-21 10 -11 11 17 2 51 -14 51 -33 0 -29 223 4 250 10 8 21 22 24 30 3 8 6 -1
6 -22 1 -36 1 -36 49 -40 26 -3 54 -8 63 -12 12 -5 18 1 25 26 5 18 8 45 6 61
l-3 27 -110 0 c-97 0 -109 -2 -110 -17z"/>
<path d="M4866 1108 c-12 -38 -15 -68 -8 -68 5 0 35 -36 67 -81 l58 -81 -17
-32 c-9 -17 -39 -56 -66 -85 -39 -43 -50 -62 -50 -89 0 -33 0 -33 42 -30 39 3
43 5 49 38 8 39 -4 61 -29 54 -11 -4 -7 4 10 19 15 14 24 28 20 33 -4 4 -1 4
6 0 8 -5 12 -1 12 12 0 10 16 40 35 67 30 44 33 52 21 70 -7 11 -25 42 -41 69
-28 47 -28 48 -6 41 l22 -7 -21 41 c-19 38 -24 41 -61 41 -23 0 -41 -5 -43
-12z"/>
<path d="M5121 1076 c-6 -24 -23 -58 -37 -76 -15 -17 -25 -33 -22 -35 2 -2 22
18 43 45 65 82 71 57 8 -32 -22 -30 -30 -49 -23 -53 6 -4 12 -5 14 -4 1 2 23
31 48 64 26 34 49 76 52 98 l7 37 -39 0 c-38 0 -40 -1 -51 -44z"/>
<path d="M5307 1086 c-3 -17 0 -71 5 -121 10 -84 5 -235 -8 -297 -6 -27 -5
-28 34 -28 39 0 41 2 48 34 6 37 0 57 -19 55 -29 -3 -38 1 -30 16 5 8 6 43 3
77 -10 99 0 228 17 228 13 0 38 48 29 58 -3 2 -21 6 -40 7 -31 2 -35 -1 -39
-29z"/>
<path d="M5602 1099 c-65 -33 -91 -79 -104 -187 -9 -72 -8 -100 2 -138 26 -91
120 -154 206 -138 65 12 130 88 103 120 -9 11 -8 15 5 20 9 3 16 9 16 14 0 4
-20 -2 -44 -14 -24 -12 -41 -24 -39 -29 2 -4 13 -2 24 4 12 6 23 8 26 5 10
-10 -64 -36 -101 -36 -18 0 -48 6 -67 14 -30 13 -31 14 -11 20 21 7 21 8 -6
31 -18 16 -32 20 -43 15 -11 -7 -20 -2 -32 19 -37 63 -29 168 16 217 29 31 52
19 37 -20 -16 -43 -12 -51 15 -26 18 17 40 25 80 28 51 4 57 2 83 -26 l29 -31
3 27 c1 15 3 50 4 77 l1 50 -80 3 c-66 2 -88 -2 -123 -19z m-15 -321 c-3 -8
-6 -5 -6 6 -1 11 2 17 5 13 3 -3 4 -12 1 -19z"/>
<path d="M6025 1106 c-70 -31 -101 -94 -111 -224 -8 -107 8 -165 57 -206 91
-77 244 -44 299 64 12 24 16 41 10 45 -6 3 -10 2 -10 -3 0 -5 -27 -21 -59 -36
-48 -21 -70 -26 -114 -22 -58 5 -97 22 -97 43 0 8 8 5 20 -7 11 -11 24 -20 29
-20 6 0 -2 12 -17 28 -24 24 -29 25 -40 12 -12 -13 -13 -13 -8 3 3 10 2 15 -4
12 -21 -13 -45 48 -45 115 0 83 18 125 57 139 29 10 30 10 24 -13 -3 -13 -9
-32 -12 -41 -6 -14 -1 -13 27 4 69 42 148 18 180 -54 35 -78 23 -159 -27 -185
-39 -22 -17 -25 25 -4 l40 19 6 80 c4 46 2 99 -4 125 -15 66 -14 72 11 64 21
-6 22 -6 7 17 -25 39 -76 59 -149 59 -36 -1 -78 -7 -95 -14z"/>
<path d="M7025 1106 c-70 -31 -102 -82 -116 -183 -19 -135 7 -214 86 -263 73
-45 187 -24 220 40 26 51 20 62 -20 38 -23 -13 -52 -20 -80 -20 -46 1 -129 31
-107 39 16 6 15 28 -2 42 -10 8 -16 9 -21 1 -12 -20 -26 -10 -45 33 -31 66
-19 158 25 207 19 21 49 15 41 -7 -4 -8 -9 -27 -12 -41 l-7 -27 27 24 c19 18
41 26 80 29 51 4 57 2 86 -26 l30 -30 2 26 c5 91 4 118 -6 124 -19 13 -149 8
-181 -6z"/>
<path d="M3627 921 c-31 -3 -57 -9 -57 -13 0 -5 0 -21 0 -38 0 -28 2 -30 38
-30 54 0 85 20 93 58 4 21 3 31 -5 30 -6 -1 -37 -4 -69 -7z"/>
<path d="M4683 923 l-63 -4 0 -41 0 -41 51 5 c28 3 56 11 64 19 15 16 29 70
18 67 -5 -1 -36 -3 -70 -5z"/>
<path d="M923 903 c-42 -4 -43 -5 -43 -40 l0 -36 51 5 c56 6 64 11 73 51 7 30
13 28 -81 20z"/>
<path d="M2180 886 c0 -2 -6 -19 -14 -37 l-14 -34 76 0 76 0 34 -88 c34 -86
35 -88 65 -85 26 2 32 9 39 36 11 41 -3 62 -35 55 -21 -4 -22 -4 -3 11 17 14
18 16 3 16 -10 0 -28 24 -48 65 l-31 65 -74 0 c-41 0 -74 -2 -74 -4z"/>
<path d="M5002 832 c-23 -31 -42 -68 -42 -81 0 -22 3 -21 32 19 28 38 33 41
43 26 5 -10 30 -48 55 -84 42 -63 48 -67 86 -70 40 -3 41 -2 47 34 8 46 3 54
-33 54 -20 0 -33 7 -41 22 -6 12 -32 46 -57 77 -24 31 -45 57 -46 58 -1 1 -21
-24 -44 -55z"/>
<path d="M1295 748 c-11 -84 -7 -91 53 -106 86 -21 171 16 188 83 9 36 2 39
-39 17 -37 -19 -109 -20 -157 -2 -3 1 -8 2 -12 1 -5 0 -8 7 -8 17 0 9 -4 23
-9 31 -6 10 -11 -3 -16 -41z"/>
<path d="M5141 783 c39 -50 63 -60 29 -13 -12 17 -26 30 -32 30 -6 0 -5 -7 3
-17z"/>
<path d="M5350 786 c0 -7 8 -20 17 -27 15 -12 16 -12 10 4 -4 10 -7 23 -7 28
0 5 -4 9 -10 9 -5 0 -10 -6 -10 -14z"/>
<path d="M7223 789 c-6 -6 -28 -17 -49 -24 -38 -14 -38 -14 -9 -14 29 -1 85
32 74 43 -3 3 -10 1 -16 -5z"/>
<path d="M1946 775 c-11 -8 -15 -15 -10 -15 6 0 19 7 30 15 10 8 15 14 9 14
-5 0 -19 -6 -29 -14z"/>
<path d="M2390 780 c0 -5 5 -10 11 -10 5 0 7 5 4 10 -3 6 -8 10 -11 10 -2 0
-4 -4 -4 -10z"/>
<path d="M3708 761 c-32 -19 -37 -31 -8 -24 19 5 46 31 39 37 -2 1 -16 -4 -31
-13z"/>
<path d="M2710 750 c-24 -18 -24 -19 -3 -14 12 4 28 12 34 20 17 20 -2 17 -31
-6z"/>
<path d="M7025 760 c-3 -5 1 -10 10 -10 9 0 13 5 10 10 -3 6 -8 10 -10 10 -2
0 -7 -4 -10 -10z"/>
<path d="M5638 743 c6 -2 18 -2 25 0 6 3 1 5 -13 5 -14 0 -19 -2 -12 -5z"/>
<path d="M5688 733 c6 -2 18 -2 25 0 6 3 1 5 -13 5 -14 0 -19 -2 -12 -5z"/>
<path d="M7078 733 c7 -3 16 -2 19 1 4 3 -2 6 -13 5 -11 0 -14 -3 -6 -6z"/>
<path d="M660 503 c0 -10 672 -13 3325 -13 2203 0 3325 3 3325 10 0 7 -1123
11 -3325 12 -2655 2 -3325 0 -3325 -9z"/>
</g>
</svg>
